<svg width="270" height="100" viewBox="52 45 270 100" fill="none" xmlns="http://www.w3.org/2000/svg">
<path d="M126.725 70.9485C132.752 70.837 138.437 74.967 135.199 81.6575C133.684 84.7865 129.288 86.0116 125.977 86.0581C117.997 86.1704 109.774 84.7202 101.863 86.6474C99.1373 87.3104 97.5636 89.0593 96.7464 91.7256C96.2202 93.4426 95.2715 95.3635 97.6027 96.3041C98.9587 96.7363 101.491 96.3705 102.965 96.1563C107.867 95.4439 112.886 95.3531 117.351 97.8334C133.297 106.356 125.973 133.003 110.971 138.111C106.883 139.503 101.484 138.062 100.229 133.459C98.2127 125.511 106.507 122.588 109.776 116.52C115.334 106.201 106.918 102.257 97.9967 104.725C93.0929 106.081 90.625 109.205 88.6511 113.799C87.6002 116.245 86.3666 119.044 85.1526 121.447C81.451 129.058 75.5074 138.699 66.2725 139.852C61.3083 140.447 55.5249 137.869 55.1541 132.239C54.6669 124.845 62.9283 121.926 67.864 118.224C70.938 115.878 73.7346 113.185 76.1991 110.197C78.4872 107.438 86.5721 95.1845 86.173 91.4781C86.114 90.9296 85.8942 90.4731 85.4496 90.134C84.7801 89.6231 83.666 89.6003 82.8694 89.6501C80.7819 89.7804 78.6713 90.4052 76.6393 90.8893C73.1727 91.715 69.7164 92.5755 66.1733 93.0027C62.6475 93.4279 57.8265 93.5891 54.8851 91.2059C53.5736 90.1432 52.7391 88.6306 52.5894 86.9369C52.4362 85.3127 52.942 83.695 53.9916 82.4528C57.2965 78.5939 64.9492 79.7805 69.3726 80.4105C83.4234 82.4119 95.8424 80.3621 109.236 75.8297C114.799 73.9471 120.808 71.3137 126.725 70.9485Z" fill="white"/>
<path d="M186.92 87.8022C187.501 87.7139 188.171 87.6537 188.754 87.7322C190.839 88.0142 191.103 89.6067 192.205 91.0432C194.176 93.6127 204.907 89.7835 208.431 90.2906C209.618 90.4614 210.782 90.9662 211.507 91.9644C212.057 92.7201 212.132 93.5845 211.99 94.4894C211.072 100.378 201.858 96.7562 199.29 98.8248C198.906 99.1343 198.702 99.5197 198.672 100.016C198.643 100.498 198.713 101.055 199.046 101.424C200.166 102.668 203.053 101.982 204.595 102.103C206.701 102.269 208.704 103.034 210.085 104.701C211.287 106.152 211.767 108.049 211.58 109.914C211.33 112.412 209.999 114.563 208.101 116.135C206.528 117.438 204.679 118.357 202.745 118.972C198.627 120.282 180.919 122.819 176.991 122.397C175.594 122.247 174.087 121.831 173.18 120.669C172.578 119.899 172.302 118.675 172.44 117.71C172.941 114.193 178.222 115.778 180.16 114.27C180.456 113.812 180.806 112.992 180.708 112.454C180.232 109.846 175.06 112.721 173.144 110.847C172.644 110.433 172.432 109.829 172.408 109.199C172.253 105.218 176.45 105.723 179.065 104.917C180.641 104.43 180.639 103.42 180.447 101.98C178.996 100.624 176.286 101.954 174.743 102.74C166.918 106.73 163.342 114.975 162.715 123.465C162.149 130.232 162.648 139.708 155.8 143.565C152.526 145.385 147.925 144.166 146.41 140.612C143.929 134.79 149.081 127.857 151.294 122.599C155.598 112.373 159.682 101.452 170.489 96.5971C174.337 94.6555 178.816 94.5577 182.756 93.5692C184.596 93.1077 182.767 89.7332 186.92 87.8022ZM185.224 100.254C185.568 101.434 185.776 102.932 186.916 103.528C188.47 103.565 195.349 103.647 192.961 99.5448C192.824 99.312 192.462 99.2867 192.187 99.223C190.147 99.3526 187.191 99.6065 185.224 100.254ZM189.821 114.163C192.243 113.695 194.245 111.572 191.848 109.264C191.451 108.881 190.174 109.049 189.573 109.102C187.799 109.461 185.942 110.466 186.412 112.66C186.528 113.204 186.858 113.679 187.326 113.974C187.976 114.393 189.072 114.279 189.821 114.163ZM202.038 112.144C205.85 110.355 204.839 107.599 200.694 107.801C197.589 108.895 197.516 113.515 202.038 112.144Z" fill="white"/>
<path d="M297.017 50.5013C297.775 50.4596 298.394 50.4558 299.134 50.6935C305.159 52.6315 301.077 60.5007 302.237 62.7705C303.756 65.7445 314.622 59.5209 317.924 61.2773C319.177 61.6122 320.297 62.5522 320.982 63.6398C321.459 64.3489 321.627 66.6208 321.24 67.3435C316.696 75.6692 304.794 71.1635 297.533 74.4208C293.397 76.2758 294.302 85.4823 287.292 83.9007C284.554 83.2825 286.37 77.4475 285.831 76.4739C284.917 74.8185 278.038 75.997 276.51 76.927C274.898 77.8689 275.533 79.7371 275.115 81.2409C274.184 84.5761 271.956 85.6575 268.789 84.7839C266.757 83.5432 266.644 82.4523 265.973 80.367C264.467 75.6821 253.467 82.4866 247.821 79.5005C246.509 78.8078 245.466 77.6932 245.058 76.241C244.664 74.7994 244.861 73.2592 245.602 71.9647C249.868 64.4353 265.336 73.181 264.008 66.0902C261.404 55.1042 272.556 54.1811 273.821 64.792C274.49 70.3904 283.58 67.0714 287.184 66.6383C291.344 66.1385 290.381 56.9594 292.44 54.1359C293.963 52.0488 294.194 51.3247 297.017 50.5013Z" fill="white"/>
<path d="M270.598 87.8092C271.742 87.6708 273.605 87.5742 274.526 87.8936C282.391 90.6198 277.921 97.1016 271.871 98.1253C269.662 98.4988 268.143 100.712 269.361 102.548C270.625 104.451 276.114 101.491 278.092 102.53C278.845 102.926 279.874 102.901 280.371 103.99C282.799 110.895 275.929 110.657 272.17 112.262C269.552 113.379 270.352 119.152 270.372 121.365C270.417 126.477 270.8 131.68 269.653 136.727C268.578 141.914 263.362 146.071 259.659 140.56C258.011 138.074 259.082 133.904 259.889 131.091C260.805 128.222 263.356 116.82 260.368 115.067C256.86 113.01 248.85 118.941 244.91 116.343C243.386 115.338 242.887 112.818 243.945 111.323C246.6 107.567 251.99 108.441 255.946 107.516C258.37 106.994 262.899 106.551 262.318 102.999C261.936 100.658 258.404 102.271 257.047 102.625C255.694 103.067 253.13 103.229 251.928 102.272C247.045 98.3873 252.707 94.6905 255.916 93.0583C260.834 90.5576 265.276 88.7521 270.598 87.8092Z" fill="white"/>
<path d="M306.594 83.0166C314.833 82.5528 318.35 102.916 318.791 109.566C319.428 119.195 318.797 130.59 312.265 138.272C309.92 141.034 307.066 142.828 303.441 143.099C300.045 143.139 296.679 141.49 295.712 137.978C293.69 130.643 301.42 126.644 304.366 120.944C309.393 111.22 307.556 100.992 303.543 91.3115C302.263 88.171 302.649 84.1721 306.594 83.0166Z" fill="white"/>
<path d="M221.471 120.495C227.503 121.111 229.135 127.509 227.783 132.557C224.927 143.228 211.723 146.737 202.176 144.24C198.003 143.148 195.222 141.093 193.044 137.348C192.448 136.114 192.017 134.806 191.765 133.457C191.15 130.122 191.366 123.534 195.747 123.067C199.631 122.653 199.431 128.145 200.406 130.6C200.985 132.091 201.972 133.385 203.252 134.334C205.41 135.927 207.893 136.251 210.523 135.891C222.516 134.251 210.871 122.093 221.471 120.495Z" fill="white"/>
<path d="M171.477 68.0006C178.927 66.8485 187.187 71.0965 186.112 79.707C185.651 83.4077 183.772 87.6106 179.371 87.0679C174.484 86.12 178.321 80.1871 175.616 77.2643C172.653 74.0621 167.105 74.9835 163.914 77.5548C163.729 77.7558 163.556 77.9671 163.395 78.188C160.336 82.3578 165.094 86.2709 162.3 89.7103C158.519 94.3659 152.424 91.1113 152.099 85.3079C151.457 73.8376 161.688 69.0017 171.477 68.0006Z" fill="white"/>
<path d="M208.399 67.2719C212.506 66.8871 217.686 68.1479 220.088 71.7759C222.376 75.1391 222.054 81.1917 218.473 83.5639C216.14 85.1099 212.335 84.2182 212.579 80.872C212.694 79.2933 212.993 77.6283 212.042 76.25C209.578 72.6753 204.305 73.4939 201.098 75.5566C200.752 75.8632 200.438 76.2045 200.163 76.5756C198.105 79.3625 201.251 83.6116 199.098 85.9456C195.297 90.0655 190.201 86.6422 190.057 81.7009C189.758 71.4274 200.043 67.9143 208.399 67.2719Z" fill="white"/>
<path d="M172.315 52.7636C177.148 52.2313 187.228 53.1324 183.407 60.476C181.829 63.511 170.31 64.6349 166.969 65.1848C163.827 65.7499 158.56 66.7725 156.296 64.4326C152.217 60.2158 159.034 56.3192 162.194 55.1828C166.235 53.7298 168.389 53.1124 172.315 52.7636Z" fill="white"/>
<path d="M97.163 54.946C101.491 54.6827 105.811 56.3143 106.996 60.9567C107.537 63.1084 107.198 65.3894 106.055 67.2866C104.611 69.6923 102.587 70.7813 99.9887 71.4118C97.3888 71.7285 95.0955 71.5051 92.8525 69.9476C91.0651 68.7036 89.8498 66.7867 89.4804 64.6289C89.1275 62.4778 89.6369 60.2735 90.8967 58.5011C92.522 56.2415 94.5493 55.3703 97.163 54.946Z" fill="white"/>
<path d="M210.188 53.8664C212.963 53.6479 217.651 54.1352 218.261 57.525C218.915 61.1529 215.553 62.6425 212.637 63.2326C208.67 64.0349 204.724 64.7513 200.751 65.471C193.96 67.0888 189.055 62.1986 195.969 57.9919C199.502 55.8413 206.139 54.2047 210.188 53.8664Z" fill="white"/>
<path d="M176.027 124.499C176.347 124.55 177.123 124.682 177.391 124.826C180.081 126.281 177.092 130.77 178.359 133.668C179.5 136.79 182.762 136.399 185.329 137.46C187.369 138.303 187.485 140.637 186.593 142.452C185.782 144.105 183.926 144.726 182.282 145.217C167.212 147.54 167.768 126.743 176.027 124.499Z" fill="white"/>
<path d="M291.954 99.5333C295.483 99.1362 297.21 101.44 298.037 104.655C299.142 108.955 298.587 114.854 293.525 116.17C284.993 116.847 285.231 102.654 291.954 99.5333Z" fill="white"/>
<path d="M253.983 119.015C259.711 120.13 255.888 124.743 254.877 127.331C253.083 131.919 252.602 136.676 246.277 136.222C244.904 135.721 243.283 134.611 243.055 133.03C242.471 128.871 246.364 126.879 248.656 124.293C250.655 122.034 250.508 119.668 253.983 119.015Z" fill="white"/>
<path d="M275.944 118.081C281.808 117.742 289.42 126.404 282.211 129.775C278.364 130.535 278.281 128.713 276.317 126.411C274.197 123.926 270.509 120.032 275.944 118.081Z" fill="white"/>
<path d="M168.639 78.9671C170.73 78.3545 172.916 79.5776 173.506 81.6907C174.097 83.8039 172.865 85.9971 170.764 86.5747C169.592 86.8971 168.338 86.6531 167.368 85.9141C166.399 85.1754 165.824 84.0251 165.813 82.8002C165.796 81.0283 166.951 79.4617 168.639 78.9671Z" fill="white"/>
<path d="M184.681 125.388C186.063 125.131 187.474 125.651 188.365 126.746C189.257 127.84 189.491 129.336 188.972 130.653C188.454 131.97 187.269 132.899 185.875 133.081C183.799 133.352 181.887 131.906 181.563 129.821C181.239 127.736 182.621 125.77 184.681 125.388Z" fill="white"/>
<path d="M207.355 123.993C208.71 123.697 210.116 124.162 211.034 125.209C211.95 126.257 212.234 127.722 211.775 129.04C211.316 130.357 210.185 131.322 208.819 131.561C206.768 131.919 204.81 130.559 204.411 128.5C204.013 126.44 205.32 124.438 207.355 123.993Z" fill="white"/>
<path d="M205.264 76.9335C207.222 76.4644 209.187 77.6822 209.655 79.6551C210.123 81.6278 208.918 83.6099 206.962 84.0843C205.002 84.5596 203.031 83.3417 202.561 81.3651C202.093 79.3887 203.305 77.4037 205.264 76.9335Z" fill="white"/>
</svg>
