<svg width="373" height="188" viewBox="0 0 373 188" fill="none" xmlns="http://www.w3.org/2000/svg">
<path d="M126.725 70.9485C132.752 70.837 138.437 74.967 135.199 81.6575C133.684 84.7865 129.288 86.0116 125.977 86.0581C117.997 86.1704 109.774 84.7202 101.863 86.6474C99.1373 87.3104 97.5636 89.0593 96.7464 91.7256C96.2202 93.4426 95.2715 95.3635 97.6027 96.3041C98.9587 96.7363 101.491 96.3705 102.965 96.1563C107.867 95.4439 112.886 95.3531 117.351 97.8334C133.297 106.356 125.973 133.003 110.971 138.111C106.883 139.503 101.484 138.062 100.229 133.459C98.2127 125.511 106.507 122.588 109.776 116.52C115.334 106.201 106.918 102.257 97.9967 104.725C93.0929 106.081 90.625 109.205 88.6511 113.799C87.6002 116.245 86.3666 119.044 85.1526 121.447C81.451 129.058 75.5074 138.699 66.2725 139.852C61.3083 140.447 55.5249 137.869 55.1541 132.239C54.6669 124.845 62.9283 121.926 67.864 118.224C70.938 115.878 73.7346 113.185 76.1991 110.197C78.4872 107.438 86.5721 95.1845 86.173 91.4781C86.114 90.9296 85.8942 90.4731 85.4496 90.134C84.7801 89.6231 83.666 89.6003 82.8694 89.6501C80.7819 89.7804 78.6713 90.4052 76.6393 90.8893C73.1727 91.715 69.7164 92.5755 66.1733 93.0027C62.6475 93.4279 57.8265 93.5891 54.8851 91.2059C53.5736 90.1432 52.7391 88.6306 52.5894 86.9369C52.4362 85.3127 52.942 83.695 53.9916 82.4528C57.2965 78.5939 64.9492 79.7805 69.3726 80.4105C83.4234 82.4119 95.8424 80.3621 109.236 75.8297C114.799 73.9471 120.808 71.3137 126.725 70.9485Z" fill="white"/>
<path d="M186.921 87.8027C187.502 87.7144 188.172 87.6541 188.755 87.7327C190.84 88.0147 191.104 89.6072 192.206 91.0437C194.177 93.6132 204.908 89.784 208.432 90.2911C209.619 90.4618 210.783 90.9667 211.508 91.9649C212.058 92.7206 212.133 93.585 211.991 94.4899C211.073 100.378 201.859 96.7567 199.291 98.8253C198.907 99.1348 198.703 99.5202 198.673 100.017C198.644 100.499 198.713 101.055 199.047 101.425C200.167 102.668 203.054 101.983 204.596 102.104C206.702 102.269 208.705 103.035 210.086 104.702C211.288 106.152 211.768 108.05 211.581 109.914C211.331 112.412 210 114.563 208.102 116.135C206.529 117.439 204.68 118.357 202.746 118.973C198.628 120.282 180.919 122.82 176.992 122.397C175.595 122.247 174.088 121.832 173.181 120.67C172.579 119.899 172.303 118.676 172.441 117.71C172.942 114.193 178.223 115.779 180.161 114.271C180.457 113.813 180.807 112.992 180.709 112.455C180.233 109.847 175.061 112.721 173.145 110.848C172.645 110.433 172.433 109.83 172.409 109.199C172.254 105.219 176.451 105.724 179.066 104.917C180.642 104.431 180.64 103.42 180.448 101.981C178.997 100.624 176.287 101.954 174.744 102.741C166.918 106.731 163.343 114.975 162.716 123.466C162.15 130.233 162.648 139.708 155.801 143.566C152.527 145.385 147.926 144.167 146.411 140.613C143.93 134.791 149.082 127.857 151.295 122.599C155.599 112.373 159.683 101.453 170.49 96.5975C174.338 94.656 178.817 94.5582 182.757 93.5697C184.597 93.1082 182.768 89.7337 186.921 87.8027ZM185.225 100.254C185.569 101.435 185.777 102.932 186.917 103.529C188.471 103.565 195.35 103.648 192.962 99.5453C192.825 99.3125 192.463 99.2872 192.188 99.2235C190.148 99.3531 187.192 99.607 185.225 100.254ZM189.822 114.163C192.244 113.696 194.246 111.573 191.849 109.264C191.452 108.881 190.175 109.05 189.574 109.102C187.8 109.462 185.943 110.466 186.412 112.66C186.529 113.205 186.859 113.679 187.327 113.974C187.977 114.393 189.073 114.279 189.822 114.163ZM202.039 112.144C205.851 110.356 204.84 107.599 200.695 107.802C197.59 108.895 197.517 113.515 202.039 112.144Z" fill="white"/>
<path d="M297.015 50.5013C297.773 50.4596 298.392 50.4558 299.132 50.6935C305.157 52.6315 301.075 60.5007 302.235 62.7705C303.754 65.7445 314.62 59.5209 317.922 61.2773C319.175 61.6122 320.295 62.5522 320.98 63.6398C321.457 64.3489 321.625 66.6208 321.239 67.3435C316.694 75.6692 304.792 71.1635 297.531 74.4208C293.395 76.2758 294.3 85.4823 287.29 83.9007C284.552 83.2825 286.368 77.4475 285.829 76.4739C284.915 74.8185 278.036 75.997 276.508 76.927C274.896 77.8689 275.531 79.7371 275.113 81.2409C274.182 84.5761 271.954 85.6575 268.787 84.7839C266.755 83.5432 266.642 82.4523 265.972 80.367C264.465 75.6821 253.465 82.4866 247.819 79.5005C246.507 78.8078 245.464 77.6932 245.056 76.241C244.662 74.7994 244.859 73.2592 245.6 71.9647C249.866 64.4353 265.334 73.181 264.006 66.0902C261.402 55.1042 272.554 54.1811 273.819 64.792C274.488 70.3904 283.578 67.0714 287.182 66.6383C291.342 66.1385 290.379 56.9594 292.439 54.1359C293.961 52.0488 294.192 51.3247 297.015 50.5013Z" fill="white"/>
<path d="M270.596 87.8092C271.74 87.6708 273.603 87.5742 274.524 87.8936C282.389 90.6198 277.919 97.1016 271.869 98.1253C269.66 98.4988 268.141 100.712 269.359 102.548C270.623 104.451 276.113 101.491 278.09 102.53C278.843 102.926 279.872 102.901 280.369 103.99C282.797 110.895 275.927 110.657 272.168 112.262C269.55 113.379 270.35 119.152 270.37 121.365C270.416 126.477 270.798 131.68 269.651 136.727C268.576 141.914 263.36 146.071 259.657 140.56C258.009 138.074 259.08 133.904 259.887 131.091C260.803 128.222 263.354 116.82 260.366 115.067C256.858 113.01 248.848 118.941 244.908 116.343C243.384 115.338 242.885 112.818 243.943 111.323C246.599 107.567 251.988 108.441 255.944 107.516C258.368 106.994 262.897 106.551 262.316 102.999C261.934 100.658 258.402 102.271 257.045 102.625C255.692 103.067 253.128 103.229 251.926 102.272C247.043 98.3873 252.705 94.6905 255.914 93.0583C260.832 90.5576 265.274 88.7521 270.596 87.8092Z" fill="white"/>
<path d="M306.592 83.0166C314.831 82.5528 318.348 102.916 318.789 109.566C319.427 119.195 318.795 130.59 312.263 138.272C309.918 141.034 307.064 142.828 303.439 143.099C300.043 143.139 296.677 141.49 295.71 137.978C293.688 130.643 301.418 126.644 304.364 120.944C309.391 111.22 307.554 100.992 303.541 91.3115C302.261 88.171 302.647 84.1721 306.592 83.0166Z" fill="white"/>
<path d="M221.473 120.494C227.505 121.11 229.137 127.509 227.785 132.556C224.929 143.228 211.725 146.736 202.178 144.239C198.005 143.148 195.224 141.093 193.046 137.347C192.45 136.114 192.019 134.805 191.767 133.457C191.152 130.122 191.368 123.533 195.749 123.067C199.633 122.653 199.433 128.144 200.407 130.6C200.987 132.09 201.974 133.385 203.254 134.334C205.412 135.927 207.895 136.25 210.525 135.891C222.518 134.251 210.873 122.093 221.473 120.494Z" fill="white"/>
<path d="M171.477 68.0001C178.927 66.848 187.187 71.096 186.112 79.7066C185.651 83.4073 183.772 87.6101 179.371 87.0674C174.484 86.1195 178.321 80.1867 175.616 77.2638C172.653 74.0616 167.105 74.9831 163.914 77.5543C163.729 77.7553 163.556 77.9666 163.395 78.1875C160.336 82.3573 165.094 86.2704 162.3 89.7099C158.519 94.3654 152.424 91.1109 152.099 85.3075C151.457 73.8371 161.688 69.0012 171.477 68.0001Z" fill="white"/>
<path d="M208.399 67.2724C212.506 66.8876 217.686 68.1484 220.088 71.7764C222.376 75.1396 222.054 81.1921 218.473 83.5644C216.14 85.1104 212.335 84.2187 212.579 80.8725C212.694 79.2938 212.993 77.6288 212.042 76.2505C209.578 72.6758 204.305 73.4944 201.098 75.5571C200.752 75.8637 200.438 76.205 200.163 76.576C198.105 79.363 201.251 83.6121 199.098 85.9461C195.297 90.066 190.201 86.6427 190.057 81.7014C189.758 71.4279 200.043 67.9148 208.399 67.2724Z" fill="white"/>
<path d="M172.317 52.7636C177.15 52.2313 187.23 53.1324 183.409 60.476C181.831 63.511 170.312 64.6349 166.971 65.1848C163.829 65.7499 158.562 66.7725 156.298 64.4326C152.219 60.2158 159.036 56.3192 162.196 55.1828C166.237 53.7298 168.391 53.1124 172.317 52.7636Z" fill="white"/>
<path d="M97.163 54.946C101.491 54.6827 105.811 56.3143 106.996 60.9567C107.537 63.1084 107.198 65.3894 106.055 67.2866C104.611 69.6923 102.587 70.7813 99.9887 71.4118C97.3888 71.7285 95.0955 71.5051 92.8525 69.9476C91.0651 68.7036 89.8498 66.7867 89.4804 64.6289C89.1275 62.4778 89.6369 60.2735 90.8967 58.5011C92.522 56.2415 94.5493 55.3703 97.163 54.946Z" fill="white"/>
<path d="M210.188 53.8669C212.963 53.6484 217.651 54.1357 218.261 57.5255C218.915 61.1533 215.553 62.643 212.637 63.2331C208.67 64.0354 204.724 64.7518 200.751 65.4715C193.96 67.0893 189.055 62.1991 195.969 57.9924C199.502 55.8418 206.139 54.2052 210.188 53.8669Z" fill="white"/>
<path d="M176.025 124.499C176.345 124.55 177.121 124.682 177.389 124.827C180.079 126.282 177.09 130.77 178.357 133.668C179.498 136.79 182.761 136.399 185.327 137.46C187.367 138.303 187.483 140.637 186.591 142.452C185.78 144.105 183.924 144.727 182.28 145.217C167.21 147.54 167.766 126.743 176.025 124.499Z" fill="white"/>
<path d="M291.955 99.5338C295.484 99.1367 297.211 101.44 298.038 104.655C299.143 108.955 298.588 114.854 293.526 116.171C284.994 116.847 285.232 102.654 291.955 99.5338Z" fill="white"/>
<path d="M253.983 119.016C259.711 120.131 255.888 124.743 254.877 127.331C253.083 131.919 252.602 136.677 246.277 136.222C244.904 135.722 243.283 134.612 243.055 133.031C242.471 128.872 246.364 126.879 248.656 124.293C250.655 122.034 250.508 119.668 253.983 119.016Z" fill="white"/>
<path d="M275.944 118.081C281.808 117.742 289.42 126.404 282.211 129.775C278.364 130.535 278.281 128.713 276.317 126.411C274.197 123.926 270.509 120.032 275.944 118.081Z" fill="white"/>
<path d="M168.64 78.9666C170.731 78.354 172.917 79.5771 173.507 81.6903C174.098 83.8034 172.866 85.9966 170.765 86.5742C169.593 86.8966 168.339 86.6526 167.369 85.9136C166.4 85.1749 165.825 84.0247 165.814 82.7997C165.797 81.0279 166.952 79.4612 168.64 78.9666Z" fill="white"/>
<path d="M184.679 125.388C186.061 125.131 187.472 125.651 188.363 126.746C189.256 127.84 189.489 129.336 188.97 130.653C188.452 131.97 187.267 132.899 185.873 133.081C183.797 133.352 181.885 131.906 181.561 129.821C181.237 127.736 182.619 125.77 184.679 125.388Z" fill="white"/>
<path d="M207.354 123.993C208.709 123.697 210.115 124.162 211.033 125.209C211.949 126.257 212.233 127.722 211.774 129.04C211.315 130.357 210.184 131.322 208.818 131.561C206.767 131.919 204.809 130.559 204.41 128.5C204.012 126.44 205.319 124.438 207.354 123.993Z" fill="white"/>
<path d="M205.263 76.9335C207.221 76.4644 209.186 77.6822 209.654 79.6551C210.122 81.6278 208.917 83.6099 206.961 84.0843C205.001 84.5596 203.03 83.3417 202.56 81.3651C202.092 79.3887 203.304 77.4037 205.263 76.9335Z" fill="white"/>
<path d="M54.44 26.24C53.624 26.24 52.9333 26.04 52.368 25.64C51.808 25.2347 51.3787 24.688 51.08 24C50.7867 23.3067 50.64 22.528 50.64 21.664C50.64 20.8107 50.7867 20.04 51.08 19.352C51.3733 18.664 51.7947 18.12 52.344 17.72C52.8987 17.32 53.568 17.12 54.352 17.12C55.1573 17.12 55.8373 17.3173 56.392 17.712C56.9467 18.1067 57.3653 18.648 57.648 19.336C57.9307 20.0187 58.072 20.7947 58.072 21.664C58.072 22.528 57.9307 23.304 57.648 23.992C57.3653 24.68 56.9547 25.2267 56.416 25.632C55.8773 26.0373 55.2187 26.24 54.44 26.24ZM54.496 25.36C55.1413 25.36 55.6773 25.2 56.104 24.88C56.536 24.5547 56.856 24.1147 57.064 23.56C57.2773 23 57.384 22.368 57.384 21.664C57.384 20.9547 57.2773 20.3227 57.064 19.768C56.8507 19.2133 56.5307 18.7813 56.104 18.472C55.6773 18.1573 55.1467 18 54.512 18C53.856 18 53.3147 18.1627 52.888 18.488C52.4613 18.808 52.144 19.2453 51.936 19.8C51.728 20.3493 51.624 20.9707 51.624 21.664C51.624 22.3627 51.7307 22.992 51.944 23.552C52.1627 24.1067 52.4827 24.5467 52.904 24.872C53.3307 25.1973 53.8613 25.36 54.496 25.36ZM57.384 26V19.344H57.304V14.48H58.224V26H57.384ZM64.0238 26.24C63.1971 26.24 62.4824 26.056 61.8798 25.688C61.2771 25.3147 60.8104 24.7893 60.4798 24.112C60.1491 23.4293 59.9838 22.624 59.9838 21.696C59.9838 20.752 60.1464 19.9387 60.4718 19.256C60.8024 18.568 61.2664 18.04 61.8638 17.672C62.4664 17.304 63.1811 17.12 64.0078 17.12C64.8451 17.12 65.5598 17.312 66.1518 17.696C66.7491 18.0747 67.2024 18.624 67.5118 19.344C67.8264 20.064 67.9758 20.9307 67.9598 21.944H66.9998V21.624C66.9731 20.44 66.7064 19.5387 66.1998 18.92C65.6931 18.3013 64.9678 17.992 64.0238 17.992C63.0478 17.992 62.2931 18.3147 61.7598 18.96C61.2318 19.6 60.9678 20.5067 60.9678 21.68C60.9678 22.8427 61.2318 23.744 61.7598 24.384C62.2931 25.024 63.0424 25.344 64.0078 25.344C64.6744 25.344 65.2558 25.1893 65.7518 24.88C66.2531 24.5653 66.6504 24.1173 66.9438 23.536L67.7758 23.904C67.4291 24.6507 66.9278 25.2267 66.2718 25.632C65.6158 26.0373 64.8664 26.24 64.0238 26.24ZM60.6158 21.944V21.112H67.4398V21.944H60.6158ZM72.9214 26.224C71.924 26.224 71.1 26.0133 70.4494 25.592C69.804 25.1707 69.404 24.584 69.2494 23.832L70.1934 23.672C70.3267 24.184 70.6414 24.592 71.1374 24.896C71.6334 25.2 72.2414 25.352 72.9614 25.352C73.676 25.352 74.244 25.2 74.6654 24.896C75.0867 24.592 75.2974 24.176 75.2974 23.648C75.2974 23.36 75.2307 23.1253 75.0974 22.944C74.9694 22.7573 74.7134 22.5867 74.3294 22.432C73.9454 22.2773 73.3747 22.096 72.6174 21.888C71.8174 21.6747 71.1907 21.4613 70.7374 21.248C70.2894 21.0347 69.972 20.792 69.7854 20.52C69.604 20.248 69.5134 19.9147 69.5134 19.52C69.5134 19.0453 69.6494 18.6293 69.9214 18.272C70.1934 17.9093 70.572 17.6267 71.0574 17.424C71.548 17.2213 72.1134 17.12 72.7534 17.12C73.3934 17.12 73.9694 17.2267 74.4814 17.44C74.9934 17.648 75.4067 17.9413 75.7214 18.32C76.036 18.6933 76.2174 19.128 76.2654 19.624L75.3214 19.8C75.2307 19.2453 74.9507 18.808 74.4814 18.488C74.012 18.1627 73.4254 17.9973 72.7214 17.992C72.0547 17.9813 71.5107 18.1147 71.0894 18.392C70.668 18.664 70.4574 19.024 70.4574 19.472C70.4574 19.728 70.5294 19.9467 70.6734 20.128C70.8227 20.304 71.084 20.4667 71.4574 20.616C71.8307 20.7653 72.3587 20.9253 73.0414 21.096C73.8734 21.3093 74.5214 21.528 74.9854 21.752C75.4547 21.976 75.7854 22.24 75.9774 22.544C76.1694 22.8427 76.2654 23.2133 76.2654 23.656C76.2654 24.456 75.9667 25.0853 75.3694 25.544C74.7774 25.9973 73.9614 26.224 72.9214 26.224ZM78.2019 15.616V14.44H79.1219V15.616H78.2019ZM78.2019 26V17.36H79.1219V26H78.2019ZM84.8863 30.08C84.4596 30.08 84.0329 30.016 83.6063 29.888C83.1849 29.7653 82.7903 29.5627 82.4223 29.28C82.0543 29.0027 81.7423 28.632 81.4863 28.168L82.3183 27.672C82.5796 28.2053 82.9503 28.5867 83.4303 28.816C83.9103 29.0453 84.3983 29.16 84.8943 29.16C85.5929 29.16 86.1449 29.0293 86.5503 28.768C86.9609 28.512 87.2543 28.1253 87.4303 27.608C87.6063 27.096 87.6943 26.4587 87.6943 25.696V23.432H87.7903V17.36H88.6302V25.696C88.6302 25.952 88.6249 26.1973 88.6143 26.432C88.6036 26.6667 88.5796 26.9013 88.5423 27.136C88.4463 27.8027 88.2489 28.352 87.9503 28.784C87.6516 29.2213 87.2463 29.5467 86.7343 29.76C86.2276 29.9733 85.6116 30.08 84.8863 30.08ZM84.8463 26.24C84.0303 26.24 83.3396 26.04 82.7743 25.64C82.2143 25.2347 81.7849 24.688 81.4863 24C81.1929 23.3067 81.0463 22.528 81.0463 21.664C81.0463 20.8107 81.1929 20.04 81.4863 19.352C81.7796 18.664 82.2009 18.12 82.7503 17.72C83.3049 17.32 83.9743 17.12 84.7583 17.12C85.5636 17.12 86.2436 17.3173 86.7983 17.712C87.3529 18.1067 87.7716 18.648 88.0543 19.336C88.3369 20.0187 88.4783 20.7947 88.4783 21.664C88.4783 22.528 88.3369 23.304 88.0543 23.992C87.7716 24.68 87.3609 25.2267 86.8223 25.632C86.2836 26.0373 85.6249 26.24 84.8463 26.24ZM84.9023 25.36C85.5476 25.36 86.0836 25.2 86.5103 24.88C86.9423 24.5547 87.2623 24.1147 87.4703 23.56C87.6836 23 87.7903 22.368 87.7903 21.664C87.7903 20.9547 87.6836 20.3227 87.4703 19.768C87.2569 19.2133 86.9369 18.7813 86.5103 18.472C86.0836 18.1573 85.5529 18 84.9183 18C84.2623 18 83.7209 18.1627 83.2943 18.488C82.8676 18.808 82.5503 19.2453 82.3423 19.8C82.1343 20.3493 82.0303 20.9707 82.0303 21.664C82.0303 22.3627 82.1369 22.992 82.3503 23.552C82.5689 24.1067 82.8889 24.5467 83.3103 24.872C83.7369 25.1973 84.2676 25.36 84.9023 25.36ZM97.198 26V21.504C97.198 20.96 97.142 20.4747 97.03 20.048C96.9233 19.6213 96.758 19.2587 96.534 18.96C96.3153 18.6613 96.038 18.4347 95.702 18.28C95.3713 18.1253 94.9793 18.048 94.526 18.048C94.0567 18.048 93.6487 18.1307 93.302 18.296C92.9607 18.456 92.678 18.6827 92.454 18.976C92.2353 19.2693 92.07 19.6187 91.958 20.024C91.8513 20.424 91.798 20.8613 91.798 21.336L91.07 21.248C91.07 20.3147 91.2273 19.5467 91.542 18.944C91.862 18.336 92.2913 17.888 92.83 17.6C93.3687 17.3067 93.974 17.16 94.646 17.16C95.1207 17.16 95.5447 17.2293 95.918 17.368C96.2967 17.5067 96.6247 17.704 96.902 17.96C97.1793 18.2107 97.4087 18.5093 97.59 18.856C97.7713 19.1973 97.9047 19.5733 97.99 19.984C98.0807 20.3947 98.126 20.824 98.126 21.272V26H97.198ZM90.87 26V17.36H91.71V19.304H91.798V26H90.87ZM103.727 26.24C102.9 26.24 102.186 26.056 101.583 25.688C100.98 25.3147 100.514 24.7893 100.183 24.112C99.8522 23.4293 99.6869 22.624 99.6869 21.696C99.6869 20.752 99.8495 19.9387 100.175 19.256C100.506 18.568 100.97 18.04 101.567 17.672C102.17 17.304 102.884 17.12 103.711 17.12C104.548 17.12 105.263 17.312 105.855 17.696C106.452 18.0747 106.906 18.624 107.215 19.344C107.53 20.064 107.679 20.9307 107.663 21.944H106.703V21.624C106.676 20.44 106.41 19.5387 105.903 18.92C105.396 18.3013 104.671 17.992 103.727 17.992C102.751 17.992 101.996 18.3147 101.463 18.96C100.935 19.6 100.671 20.5067 100.671 21.68C100.671 22.8427 100.935 23.744 101.463 24.384C101.996 25.024 102.746 25.344 103.711 25.344C104.378 25.344 104.959 25.1893 105.455 24.88C105.956 24.5653 106.354 24.1173 106.647 23.536L107.479 23.904C107.132 24.6507 106.631 25.2267 105.975 25.632C105.319 26.0373 104.57 26.24 103.727 26.24ZM100.319 21.944V21.112H107.143V21.944H100.319ZM112.753 26.24C111.937 26.24 111.246 26.04 110.681 25.64C110.121 25.2347 109.691 24.688 109.393 24C109.099 23.3067 108.953 22.528 108.953 21.664C108.953 20.8107 109.099 20.04 109.393 19.352C109.686 18.664 110.107 18.12 110.657 17.72C111.211 17.32 111.881 17.12 112.665 17.12C113.47 17.12 114.15 17.3173 114.705 17.712C115.259 18.1067 115.678 18.648 115.961 19.336C116.243 20.0187 116.385 20.7947 116.385 21.664C116.385 22.528 116.243 23.304 115.961 23.992C115.678 24.68 115.267 25.2267 114.729 25.632C114.19 26.0373 113.531 26.24 112.753 26.24ZM112.809 25.36C113.454 25.36 113.99 25.2 114.417 24.88C114.849 24.5547 115.169 24.1147 115.377 23.56C115.59 23 115.697 22.368 115.697 21.664C115.697 20.9547 115.59 20.3227 115.377 19.768C115.163 19.2133 114.843 18.7813 114.417 18.472C113.99 18.1573 113.459 18 112.825 18C112.169 18 111.627 18.1627 111.201 18.488C110.774 18.808 110.457 19.2453 110.249 19.8C110.041 20.3493 109.937 20.9707 109.937 21.664C109.937 22.3627 110.043 22.992 110.257 23.552C110.475 24.1067 110.795 24.5467 111.217 24.872C111.643 25.1973 112.174 25.36 112.809 25.36ZM115.697 26V19.344H115.617V14.48H116.536V26H115.697ZM123.819 26L121.179 17.36H122.123L124.291 24.456L126.459 17.36H127.347L129.523 24.456L131.699 17.36H132.627L129.987 26H129.123L126.907 18.808L124.683 26H123.819ZM134.233 15.616V14.44H135.153V15.616H134.233ZM134.233 26V17.36H135.153V26H134.233ZM142.142 26C141.683 26.1013 141.23 26.1387 140.782 26.112C140.334 26.0907 139.934 25.992 139.582 25.816C139.235 25.6347 138.974 25.3573 138.798 24.984C138.654 24.68 138.574 24.3733 138.558 24.064C138.542 23.7547 138.534 23.4 138.534 23V14.96H139.462V22.984C139.462 23.3467 139.464 23.648 139.47 23.888C139.48 24.1227 139.536 24.3387 139.638 24.536C139.83 24.904 140.134 25.128 140.549 25.208C140.966 25.2827 141.496 25.2693 142.142 25.168V26ZM136.598 18.2V17.36H142.142V18.2H136.598ZM150.12 26V21.504C150.12 20.96 150.064 20.4747 149.952 20.048C149.845 19.6213 149.68 19.2587 149.456 18.96C149.237 18.6613 148.96 18.4347 148.624 18.28C148.293 18.1253 147.901 18.048 147.448 18.048C146.979 18.048 146.571 18.1307 146.224 18.296C145.883 18.456 145.6 18.6827 145.376 18.976C145.157 19.2693 144.992 19.6187 144.88 20.024C144.773 20.424 144.72 20.8613 144.72 21.336L143.992 21.248C143.992 20.3147 144.149 19.5467 144.464 18.944C144.784 18.336 145.213 17.888 145.752 17.6C146.291 17.3067 146.896 17.16 147.568 17.16C148.043 17.16 148.467 17.2293 148.84 17.368C149.219 17.5067 149.547 17.704 149.824 17.96C150.101 18.2107 150.331 18.5093 150.512 18.856C150.693 19.1973 150.827 19.5733 150.912 19.984C151.003 20.3947 151.048 20.824 151.048 21.272V26H150.12ZM143.792 26V14.48H144.632V21.136H144.72V26H143.792ZM300.42 26.24C299.641 26.24 298.982 26.0373 298.444 25.632C297.905 25.2267 297.494 24.68 297.212 23.992C296.929 23.304 296.788 22.528 296.788 21.664C296.788 20.7947 296.929 20.0187 297.212 19.336C297.494 18.648 297.913 18.1067 298.468 17.712C299.022 17.3173 299.702 17.12 300.508 17.12C301.292 17.12 301.961 17.32 302.516 17.72C303.07 18.12 303.492 18.664 303.78 19.352C304.073 20.04 304.22 20.8107 304.22 21.664C304.22 22.528 304.07 23.3067 303.772 24C303.478 24.688 303.049 25.2347 302.484 25.64C301.924 26.04 301.236 26.24 300.42 26.24ZM296.636 26V14.48H297.556V19.344H297.476V26H296.636ZM300.364 25.36C300.998 25.36 301.526 25.1973 301.948 24.872C302.374 24.5467 302.694 24.1067 302.908 23.552C303.126 22.992 303.236 22.3627 303.236 21.664C303.236 20.9707 303.129 20.3493 302.916 19.8C302.708 19.2453 302.39 18.808 301.964 18.488C301.542 18.1627 301.004 18 300.348 18C299.713 18 299.182 18.1573 298.756 18.472C298.329 18.7813 298.009 19.2133 297.796 19.768C297.582 20.3227 297.476 20.9547 297.476 21.664C297.476 22.368 297.58 23 297.788 23.56C298.001 24.1147 298.321 24.5547 298.748 24.88C299.18 25.2 299.718 25.36 300.364 25.36ZM306.884 29.84L308.564 25.32L308.58 26.664L304.796 17.36H305.78L309.028 25.44H308.516L311.468 17.36H312.436L307.844 29.84H306.884Z" fill="white"/>
<path d="M162.127 18.064C161.85 18.064 161.535 18.2613 161.183 18.656C160.842 19.04 160.49 19.568 160.127 20.24C159.775 20.9013 159.439 21.648 159.119 22.48C158.81 23.312 158.548 24.176 158.335 25.072L158.623 23.344C159.082 21.9467 159.524 20.8267 159.951 19.984C160.378 19.1307 160.804 18.512 161.231 18.128C161.668 17.744 162.122 17.552 162.591 17.552C163.092 17.552 163.492 17.7387 163.791 18.112C164.1 18.4853 164.255 19.0507 164.255 19.808C164.255 20.288 164.186 20.816 164.047 21.392C163.919 21.968 163.722 22.5387 163.455 23.104C163.199 23.6693 162.879 24.192 162.495 24.672C162.122 25.1413 161.69 25.52 161.199 25.808C160.708 26.0853 160.164 26.224 159.567 26.224C159.247 26.224 158.959 26.128 158.703 25.936C158.458 25.744 158.292 25.4667 158.207 25.104L158.335 24.784C158.484 25.1787 158.655 25.456 158.847 25.616C159.05 25.776 159.284 25.856 159.551 25.856C159.914 25.856 160.26 25.7173 160.591 25.44C160.922 25.152 161.226 24.7733 161.503 24.304C161.78 23.8347 162.02 23.3173 162.223 22.752C162.436 22.176 162.596 21.6053 162.703 21.04C162.82 20.464 162.879 19.936 162.879 19.456C162.879 18.9867 162.81 18.64 162.671 18.416C162.543 18.1813 162.362 18.064 162.127 18.064ZM159.727 15.328C159.983 15.3173 160.234 15.296 160.479 15.264C160.735 15.232 160.97 15.1787 161.183 15.104L157.663 27.408C157.535 27.856 157.599 28.16 157.855 28.32C158.111 28.48 158.479 28.56 158.959 28.56L158.863 28.896C158.65 28.8853 158.346 28.8693 157.951 28.848C157.567 28.8373 157.156 28.832 156.719 28.832C156.388 28.832 156.052 28.8373 155.711 28.848C155.37 28.8693 155.114 28.8853 154.943 28.896L155.039 28.56C155.423 28.56 155.7 28.4853 155.871 28.336C156.042 28.1973 156.18 27.9413 156.287 27.568L159.727 15.328ZM156.399 20.288C156.815 19.8827 157.204 19.4827 157.567 19.088C157.93 18.6827 158.282 18.2027 158.623 17.648C158.964 17.0933 159.311 16.3947 159.663 15.552L159.711 15.808C159.476 16.5333 159.194 17.1733 158.863 17.728C158.543 18.272 158.191 18.768 157.807 19.216C157.423 19.6533 157.012 20.08 156.575 20.496L156.399 20.288ZM166.971 25.712C167.227 25.712 167.521 25.552 167.851 25.232C168.182 24.9013 168.518 24.4587 168.859 23.904C169.201 23.3493 169.515 22.72 169.803 22.016C170.091 21.312 170.321 20.5813 170.491 19.824L170.219 21.552C169.814 22.6827 169.409 23.5947 169.003 24.288C168.598 24.9707 168.187 25.4667 167.771 25.776C167.355 26.0747 166.934 26.224 166.507 26.224C166.006 26.224 165.627 26.0427 165.371 25.68C165.126 25.3173 165.003 24.8533 165.003 24.288C165.003 23.776 165.089 23.2213 165.259 22.624C165.43 22.016 165.665 21.4133 165.963 20.816C166.273 20.2187 166.625 19.6747 167.019 19.184C167.414 18.6933 167.841 18.2987 168.299 18C168.769 17.7013 169.243 17.552 169.723 17.552C170.097 17.552 170.379 17.7387 170.571 18.112C170.774 18.4747 170.817 18.9867 170.699 19.648L170.523 19.744C170.598 19.1787 170.561 18.7253 170.411 18.384C170.262 18.032 170.017 17.856 169.675 17.856C169.398 17.856 169.105 17.9947 168.795 18.272C168.497 18.5387 168.203 18.9067 167.915 19.376C167.638 19.8347 167.382 20.352 167.147 20.928C166.923 21.504 166.742 22.1013 166.603 22.72C166.475 23.328 166.411 23.9147 166.411 24.48C166.411 24.9387 166.459 25.2587 166.555 25.44C166.662 25.6213 166.801 25.712 166.971 25.712ZM171.003 17.776C171.259 17.7653 171.515 17.744 171.771 17.712C172.027 17.68 172.262 17.6267 172.475 17.552L170.475 24.624C170.454 24.72 170.422 24.848 170.379 25.008C170.347 25.1573 170.347 25.296 170.379 25.424C170.422 25.552 170.534 25.616 170.715 25.616C170.929 25.616 171.137 25.4987 171.339 25.264C171.542 25.0293 171.745 24.6027 171.947 23.984L172.139 23.392H172.443L172.043 24.56C171.894 24.9867 171.713 25.3227 171.499 25.568C171.297 25.8027 171.083 25.968 170.859 26.064C170.635 26.1707 170.417 26.224 170.203 26.224C169.787 26.224 169.494 26.0853 169.323 25.808C169.185 25.5627 169.147 25.28 169.211 24.96C169.275 24.6293 169.35 24.2987 169.435 23.968L171.003 17.776ZM174.178 25.76C174.264 25.8027 174.354 25.84 174.45 25.872C174.557 25.8933 174.712 25.904 174.914 25.904C175.384 25.904 175.768 25.7653 176.066 25.488C176.376 25.2 176.53 24.7893 176.53 24.256C176.53 23.9253 176.466 23.6 176.338 23.28C176.221 22.9493 176.008 22.5707 175.698 22.144C175.453 21.8027 175.218 21.456 174.994 21.104C174.77 20.7413 174.658 20.3147 174.658 19.824C174.658 19.3653 174.77 18.9707 174.994 18.64C175.218 18.2987 175.517 18.032 175.89 17.84C176.274 17.648 176.69 17.552 177.138 17.552C177.448 17.552 177.752 17.5893 178.05 17.664C178.349 17.7387 178.594 17.8773 178.786 18.08C178.989 18.272 179.09 18.56 179.09 18.944C179.09 19.04 179.064 19.1573 179.01 19.296C178.968 19.424 178.893 19.536 178.786 19.632C178.68 19.728 178.536 19.776 178.354 19.776C178.184 19.776 178.034 19.7173 177.906 19.6C177.778 19.472 177.714 19.3067 177.714 19.104C177.714 18.912 177.752 18.7307 177.826 18.56C177.912 18.3787 178.024 18.2027 178.162 18.032C177.96 17.904 177.693 17.84 177.362 17.84C176.968 17.84 176.637 17.9733 176.37 18.24C176.104 18.5067 175.97 18.88 175.97 19.36C175.97 19.6053 176.008 19.824 176.082 20.016C176.157 20.1973 176.264 20.3893 176.402 20.592C176.552 20.7947 176.728 21.0507 176.93 21.36C177.197 21.7653 177.421 22.1547 177.602 22.528C177.784 22.9013 177.874 23.296 177.874 23.712C177.874 24.2027 177.746 24.64 177.49 25.024C177.245 25.3973 176.914 25.6907 176.498 25.904C176.082 26.1173 175.624 26.224 175.122 26.224C174.76 26.224 174.413 26.1707 174.082 26.064C173.752 25.9573 173.48 25.792 173.266 25.568C173.064 25.3333 172.962 25.024 172.962 24.64C172.962 24.4907 173.01 24.336 173.106 24.176C173.192 24.0053 173.352 23.92 173.586 23.92C173.842 23.92 174.024 24.0267 174.13 24.24C174.237 24.4427 174.29 24.672 174.29 24.928C174.29 25.0987 174.274 25.2533 174.242 25.392C174.221 25.52 174.2 25.6427 174.178 25.76ZM180.272 25.76C180.357 25.8027 180.448 25.84 180.544 25.872C180.651 25.8933 180.805 25.904 181.008 25.904C181.477 25.904 181.861 25.7653 182.16 25.488C182.469 25.2 182.624 24.7893 182.624 24.256C182.624 23.9253 182.56 23.6 182.432 23.28C182.315 22.9493 182.101 22.5707 181.792 22.144C181.547 21.8027 181.312 21.456 181.088 21.104C180.864 20.7413 180.752 20.3147 180.752 19.824C180.752 19.3653 180.864 18.9707 181.088 18.64C181.312 18.2987 181.611 18.032 181.984 17.84C182.368 17.648 182.784 17.552 183.232 17.552C183.541 17.552 183.845 17.5893 184.144 17.664C184.443 17.7387 184.688 17.8773 184.88 18.08C185.083 18.272 185.184 18.56 185.184 18.944C185.184 19.04 185.157 19.1573 185.104 19.296C185.061 19.424 184.987 19.536 184.88 19.632C184.773 19.728 184.629 19.776 184.448 19.776C184.277 19.776 184.128 19.7173 184 19.6C183.872 19.472 183.808 19.3067 183.808 19.104C183.808 18.912 183.845 18.7307 183.92 18.56C184.005 18.3787 184.117 18.2027 184.256 18.032C184.053 17.904 183.787 17.84 183.456 17.84C183.061 17.84 182.731 17.9733 182.464 18.24C182.197 18.5067 182.064 18.88 182.064 19.36C182.064 19.6053 182.101 19.824 182.176 20.016C182.251 20.1973 182.357 20.3893 182.496 20.592C182.645 20.7947 182.821 21.0507 183.024 21.36C183.291 21.7653 183.515 22.1547 183.696 22.528C183.877 22.9013 183.968 23.296 183.968 23.712C183.968 24.2027 183.84 24.64 183.584 25.024C183.339 25.3973 183.008 25.6907 182.592 25.904C182.176 26.1173 181.717 26.224 181.216 26.224C180.853 26.224 180.507 26.1707 180.176 26.064C179.845 25.9573 179.573 25.792 179.36 25.568C179.157 25.3333 179.056 25.024 179.056 24.64C179.056 24.4907 179.104 24.336 179.2 24.176C179.285 24.0053 179.445 23.92 179.68 23.92C179.936 23.92 180.117 24.0267 180.224 24.24C180.331 24.4427 180.384 24.672 180.384 24.928C180.384 25.0987 180.368 25.2533 180.336 25.392C180.315 25.52 180.293 25.6427 180.272 25.76ZM188.446 14.864C188.499 14.5867 188.638 14.3467 188.862 14.144C189.097 13.9413 189.347 13.84 189.614 13.84C189.891 13.84 190.105 13.9413 190.254 14.144C190.414 14.3467 190.467 14.5867 190.414 14.864C190.361 15.1413 190.217 15.3813 189.982 15.584C189.758 15.7867 189.507 15.888 189.23 15.888C188.963 15.888 188.75 15.7867 188.59 15.584C188.441 15.3813 188.393 15.1413 188.446 14.864ZM187.95 19.136C188.174 18.4747 188.099 18.144 187.726 18.144C187.481 18.144 187.262 18.2773 187.07 18.544C186.878 18.8107 186.675 19.2213 186.462 19.776L186.238 20.368H185.934L186.35 19.2C186.51 18.752 186.702 18.4107 186.926 18.176C187.15 17.9413 187.385 17.7813 187.63 17.696C187.886 17.6 188.121 17.552 188.334 17.552C188.675 17.552 188.926 17.6213 189.086 17.76C189.246 17.8987 189.342 18.08 189.374 18.304C189.406 18.528 189.395 18.7733 189.342 19.04C189.289 19.296 189.219 19.5467 189.134 19.792L187.422 24.64C187.315 24.9493 187.278 25.1947 187.31 25.376C187.353 25.5467 187.475 25.632 187.678 25.632C187.891 25.632 188.094 25.5147 188.286 25.28C188.478 25.0453 188.691 24.6187 188.926 24L189.15 23.408H189.454L189.038 24.576C188.889 24.992 188.707 25.3227 188.494 25.568C188.281 25.8027 188.051 25.968 187.806 26.064C187.561 26.1707 187.315 26.224 187.07 26.224C186.611 26.224 186.302 26.1173 186.142 25.904C185.982 25.6907 185.923 25.4133 185.966 25.072C186.009 24.7307 186.099 24.368 186.238 23.984L187.95 19.136ZM195.114 17.872C194.773 17.872 194.442 18.0107 194.122 18.288C193.813 18.5547 193.525 18.9227 193.258 19.392C193.002 19.8507 192.773 20.368 192.57 20.944C192.378 21.52 192.229 22.1173 192.122 22.736C192.015 23.3547 191.962 23.9467 191.962 24.512C191.962 24.992 192.037 25.344 192.186 25.568C192.346 25.792 192.575 25.904 192.874 25.904C193.215 25.904 193.541 25.7707 193.85 25.504C194.17 25.2267 194.463 24.8587 194.73 24.4C194.997 23.9307 195.226 23.408 195.418 22.832C195.61 22.256 195.759 21.664 195.866 21.056C195.973 20.4373 196.026 19.84 196.026 19.264C196.026 18.7733 195.951 18.4213 195.802 18.208C195.653 17.984 195.423 17.872 195.114 17.872ZM190.586 23.712C190.586 23.2427 190.65 22.7307 190.778 22.176C190.906 21.6213 191.098 21.072 191.354 20.528C191.61 19.984 191.919 19.488 192.282 19.04C192.655 18.592 193.087 18.2347 193.578 17.968C194.069 17.6907 194.613 17.552 195.21 17.552C195.871 17.552 196.399 17.76 196.794 18.176C197.199 18.5813 197.402 19.2107 197.402 20.064C197.402 20.5333 197.338 21.0453 197.21 21.6C197.082 22.1547 196.89 22.704 196.634 23.248C196.378 23.792 196.063 24.288 195.69 24.736C195.327 25.184 194.901 25.5467 194.41 25.824C193.919 26.0907 193.375 26.224 192.778 26.224C192.117 26.224 191.583 26.016 191.178 25.6C190.783 25.184 190.586 24.5547 190.586 23.712ZM200.015 26H198.623L200.543 19.136C200.585 19.008 200.617 18.8693 200.639 18.72C200.671 18.56 200.665 18.4267 200.623 18.32C200.58 18.2027 200.473 18.144 200.303 18.144C200.068 18.144 199.86 18.2613 199.679 18.496C199.497 18.72 199.295 19.1467 199.071 19.776L198.863 20.368H198.559L198.959 19.2C199.193 18.528 199.481 18.0853 199.823 17.872C200.175 17.6587 200.521 17.552 200.863 17.552C201.183 17.552 201.412 17.6213 201.551 17.76C201.7 17.8987 201.78 18.08 201.791 18.304C201.812 18.5173 201.796 18.7573 201.743 19.024C201.7 19.28 201.647 19.536 201.583 19.792L200.015 26ZM200.751 22.672C201.124 21.712 201.487 20.9067 201.839 20.256C202.191 19.6053 202.537 19.0827 202.879 18.688C203.22 18.2827 203.567 17.9947 203.919 17.824C204.281 17.6427 204.655 17.552 205.039 17.552C205.54 17.552 205.881 17.6747 206.062 17.92C206.255 18.1547 206.34 18.4587 206.319 18.832C206.297 19.1947 206.223 19.5733 206.095 19.968L204.543 24.64C204.447 24.928 204.404 25.168 204.415 25.36C204.436 25.5413 204.564 25.632 204.799 25.632C205.001 25.632 205.199 25.52 205.391 25.296C205.593 25.072 205.807 24.64 206.031 24L206.239 23.408H206.543L206.142 24.576C205.993 25.024 205.807 25.3653 205.583 25.6C205.369 25.8347 205.14 25.9947 204.895 26.08C204.66 26.176 204.431 26.224 204.207 26.224C203.951 26.224 203.737 26.1813 203.567 26.096C203.407 26.0107 203.284 25.8987 203.199 25.76C203.081 25.568 203.044 25.3173 203.087 25.008C203.129 24.6987 203.215 24.3573 203.343 23.984L204.863 19.408C204.916 19.2587 204.959 19.0827 204.991 18.88C205.033 18.6667 205.028 18.48 204.975 18.32C204.921 18.1493 204.767 18.064 204.511 18.064C204.255 18.064 203.983 18.176 203.695 18.4C203.407 18.624 203.108 18.944 202.799 19.36C202.489 19.7653 202.185 20.256 201.887 20.832C201.588 21.3973 201.3 22.0267 201.023 22.72C200.756 23.4027 200.511 24.1333 200.287 24.912L200.751 22.672ZM213.503 25.712C213.759 25.712 214.052 25.552 214.383 25.232C214.713 24.9013 215.049 24.4587 215.391 23.904C215.732 23.3493 216.047 22.72 216.335 22.016C216.623 21.312 216.852 20.5813 217.023 19.824L216.751 21.552C216.345 22.6827 215.94 23.5947 215.535 24.288C215.129 24.9707 214.719 25.4667 214.303 25.776C213.887 26.0747 213.465 26.224 213.039 26.224C212.537 26.224 212.159 26.0427 211.903 25.68C211.657 25.3173 211.535 24.8533 211.535 24.288C211.535 23.776 211.62 23.2213 211.791 22.624C211.961 22.016 212.196 21.4133 212.495 20.816C212.804 20.2187 213.156 19.6747 213.551 19.184C213.945 18.6933 214.372 18.2987 214.831 18C215.3 17.7013 215.775 17.552 216.255 17.552C216.628 17.552 216.911 17.7387 217.103 18.112C217.305 18.4747 217.348 18.9867 217.231 19.648L217.055 19.744C217.129 19.1787 217.092 18.7253 216.943 18.384C216.793 18.032 216.548 17.856 216.207 17.856C215.929 17.856 215.636 17.9947 215.327 18.272C215.028 18.5387 214.735 18.9067 214.447 19.376C214.169 19.8347 213.913 20.352 213.679 20.928C213.455 21.504 213.273 22.1013 213.135 22.72C213.007 23.328 212.943 23.9147 212.943 24.48C212.943 24.9387 212.991 25.2587 213.087 25.44C213.193 25.6213 213.332 25.712 213.503 25.712ZM217.535 17.776C217.791 17.7653 218.047 17.744 218.303 17.712C218.559 17.68 218.793 17.6267 219.007 17.552L217.007 24.624C216.985 24.72 216.953 24.848 216.911 25.008C216.879 25.1573 216.879 25.296 216.911 25.424C216.953 25.552 217.065 25.616 217.247 25.616C217.46 25.616 217.668 25.4987 217.871 25.264C218.073 25.0293 218.276 24.6027 218.479 23.984L218.671 23.392H218.975L218.575 24.56C218.425 24.9867 218.244 25.3227 218.031 25.568C217.828 25.8027 217.615 25.968 217.391 26.064C217.167 26.1707 216.948 26.224 216.735 26.224C216.319 26.224 216.025 26.0853 215.855 25.808C215.716 25.5627 215.679 25.28 215.743 24.96C215.807 24.6293 215.881 24.2987 215.967 23.968L217.535 17.776ZM221.718 26H220.326L222.246 19.136C222.288 19.008 222.32 18.8693 222.342 18.72C222.374 18.56 222.368 18.4267 222.326 18.32C222.283 18.2027 222.176 18.144 222.006 18.144C221.771 18.144 221.563 18.2613 221.382 18.496C221.2 18.72 220.998 19.1467 220.774 19.776L220.566 20.368H220.262L220.662 19.2C220.896 18.528 221.184 18.0853 221.526 17.872C221.878 17.6587 222.224 17.552 222.566 17.552C222.886 17.552 223.115 17.6213 223.254 17.76C223.403 17.8987 223.483 18.08 223.494 18.304C223.515 18.5173 223.499 18.7573 223.446 19.024C223.403 19.28 223.35 19.536 223.286 19.792L221.718 26ZM222.454 22.672C222.827 21.712 223.19 20.9067 223.542 20.256C223.894 19.6053 224.24 19.0827 224.582 18.688C224.923 18.2827 225.27 17.9947 225.622 17.824C225.984 17.6427 226.358 17.552 226.742 17.552C227.243 17.552 227.584 17.6747 227.766 17.92C227.958 18.1547 228.043 18.4587 228.022 18.832C228 19.1947 227.926 19.5733 227.798 19.968L226.246 24.64C226.15 24.928 226.107 25.168 226.118 25.36C226.139 25.5413 226.267 25.632 226.502 25.632C226.704 25.632 226.902 25.52 227.094 25.296C227.296 25.072 227.51 24.64 227.734 24L227.942 23.408H228.246L227.846 24.576C227.696 25.024 227.51 25.3653 227.286 25.6C227.072 25.8347 226.843 25.9947 226.598 26.08C226.363 26.176 226.134 26.224 225.91 26.224C225.654 26.224 225.44 26.1813 225.27 26.096C225.11 26.0107 224.987 25.8987 224.902 25.76C224.784 25.568 224.747 25.3173 224.79 25.008C224.832 24.6987 224.918 24.3573 225.046 23.984L226.566 19.408C226.619 19.2587 226.662 19.0827 226.694 18.88C226.736 18.6667 226.731 18.48 226.678 18.32C226.624 18.1493 226.47 18.064 226.214 18.064C225.958 18.064 225.686 18.176 225.398 18.4C225.11 18.624 224.811 18.944 224.502 19.36C224.192 19.7653 223.888 20.256 223.59 20.832C223.291 21.3973 223.003 22.0267 222.726 22.72C222.459 23.4027 222.214 24.1333 221.99 24.912L222.454 22.672ZM234.951 24.64C234.876 24.8853 234.844 25.1147 234.855 25.328C234.876 25.5307 235.004 25.632 235.239 25.632C235.452 25.632 235.65 25.5147 235.831 25.28C236.012 25.0347 236.204 24.608 236.407 24L236.599 23.408H236.903L236.535 24.576C236.407 25.0027 236.236 25.3387 236.023 25.584C235.81 25.8187 235.586 25.984 235.351 26.08C235.116 26.176 234.892 26.224 234.679 26.224C234.039 26.224 233.703 25.92 233.671 25.312C233.66 25.1413 233.671 24.944 233.703 24.72C233.746 24.496 233.804 24.2507 233.879 23.984L236.183 15.328C236.279 14.9653 236.263 14.6987 236.135 14.528C236.007 14.3573 235.682 14.272 235.159 14.272L235.255 13.936C235.842 13.9253 236.359 13.8667 236.807 13.76C237.255 13.6427 237.682 13.4827 238.087 13.28L234.951 24.64ZM231.367 25.712C231.634 25.712 231.932 25.5573 232.263 25.248C232.604 24.928 232.946 24.5013 233.287 23.968C233.639 23.424 233.959 22.8107 234.247 22.128C234.546 21.4347 234.78 20.72 234.951 19.984L234.711 21.712C234.295 22.8107 233.879 23.6907 233.463 24.352C233.058 25.0133 232.642 25.4933 232.215 25.792C231.799 26.08 231.362 26.224 230.903 26.224C230.572 26.224 230.279 26.1493 230.023 26C229.778 25.84 229.586 25.6053 229.447 25.296C229.308 24.9867 229.239 24.592 229.239 24.112C229.239 23.6 229.319 23.0507 229.479 22.464C229.65 21.8667 229.89 21.28 230.199 20.704C230.508 20.128 230.876 19.6053 231.303 19.136C231.74 18.656 232.22 18.272 232.743 17.984C233.266 17.696 233.82 17.552 234.407 17.552C234.652 17.552 234.882 17.648 235.095 17.84C235.308 18.0213 235.426 18.2987 235.447 18.672L235.319 18.992C235.276 18.608 235.17 18.336 234.999 18.176C234.828 18.0053 234.636 17.92 234.423 17.92C234.018 17.92 233.623 18.0587 233.239 18.336C232.866 18.6133 232.524 18.9813 232.215 19.44C231.906 19.8987 231.634 20.4107 231.399 20.976C231.164 21.5307 230.983 22.1013 230.855 22.688C230.727 23.264 230.663 23.808 230.663 24.32C230.663 24.7893 230.722 25.1413 230.839 25.376C230.956 25.6 231.132 25.712 231.367 25.712ZM243.702 26H242.31L244.23 19.136C244.262 19.04 244.288 18.9173 244.31 18.768C244.342 18.608 244.342 18.464 244.31 18.336C244.278 18.208 244.176 18.144 244.006 18.144C243.771 18.144 243.558 18.2667 243.366 18.512C243.174 18.7573 242.971 19.1787 242.758 19.776L242.55 20.368H242.246L242.646 19.2C242.806 18.752 242.992 18.4107 243.206 18.176C243.43 17.9413 243.659 17.7813 243.894 17.696C244.139 17.6 244.368 17.552 244.582 17.552C244.902 17.552 245.131 17.6267 245.27 17.776C245.408 17.9147 245.483 18.1013 245.494 18.336C245.515 18.56 245.499 18.8 245.446 19.056C245.392 19.312 245.334 19.5573 245.27 19.792L243.702 26ZM248.23 19.408C248.304 19.184 248.352 18.9707 248.374 18.768C248.406 18.5653 248.39 18.4 248.326 18.272C248.272 18.1333 248.144 18.064 247.942 18.064C247.643 18.064 247.312 18.2507 246.95 18.624C246.598 18.9867 246.235 19.4987 245.862 20.16C245.499 20.8107 245.147 21.5733 244.806 22.448C244.464 23.312 244.16 24.24 243.894 25.232L244.422 22.672C244.912 21.392 245.371 20.3787 245.798 19.632C246.224 18.8853 246.651 18.352 247.078 18.032C247.515 17.712 247.979 17.552 248.47 17.552C248.811 17.552 249.056 17.632 249.206 17.792C249.366 17.9413 249.462 18.1387 249.494 18.384C249.526 18.6293 249.515 18.8907 249.462 19.168C249.419 19.4453 249.366 19.712 249.302 19.968L247.67 26H246.23L248.23 19.408ZM252.23 19.408C252.336 19.0773 252.39 18.7733 252.39 18.496C252.39 18.208 252.272 18.064 252.038 18.064C251.718 18.064 251.382 18.2507 251.03 18.624C250.678 18.9973 250.315 19.5307 249.942 20.224C249.568 20.9067 249.195 21.712 248.822 22.64C248.459 23.5573 248.107 24.5707 247.766 25.68L248.134 23.632C248.55 22.5227 248.934 21.584 249.286 20.816C249.638 20.0373 249.984 19.408 250.326 18.928C250.667 18.448 251.019 18.1013 251.382 17.888C251.744 17.664 252.139 17.552 252.566 17.552C253.014 17.552 253.318 17.68 253.478 17.936C253.638 18.192 253.702 18.5067 253.67 18.88C253.648 19.2427 253.579 19.6053 253.462 19.968L251.91 24.64C251.803 24.9707 251.766 25.2213 251.798 25.392C251.83 25.552 251.952 25.632 252.166 25.632C252.368 25.632 252.566 25.52 252.758 25.296C252.96 25.072 253.174 24.64 253.398 24L253.606 23.408H253.91L253.51 24.576C253.36 25.024 253.174 25.3653 252.95 25.6C252.736 25.8347 252.507 25.9947 252.262 26.08C252.027 26.176 251.798 26.224 251.574 26.224C251.307 26.224 251.094 26.1813 250.934 26.096C250.784 26.0213 250.667 25.92 250.582 25.792C250.454 25.5893 250.411 25.3387 250.454 25.04C250.496 24.7307 250.582 24.3787 250.71 23.984L252.23 19.408ZM256.815 25.712C257.071 25.712 257.364 25.552 257.695 25.232C258.026 24.9013 258.362 24.4587 258.703 23.904C259.044 23.3493 259.359 22.72 259.647 22.016C259.935 21.312 260.164 20.5813 260.335 19.824L260.063 21.552C259.658 22.6827 259.252 23.5947 258.847 24.288C258.442 24.9707 258.031 25.4667 257.615 25.776C257.199 26.0747 256.778 26.224 256.351 26.224C255.85 26.224 255.471 26.0427 255.215 25.68C254.97 25.3173 254.847 24.8533 254.847 24.288C254.847 23.776 254.932 23.2213 255.103 22.624C255.274 22.016 255.508 21.4133 255.807 20.816C256.116 20.2187 256.468 19.6747 256.863 19.184C257.258 18.6933 257.684 18.2987 258.143 18C258.612 17.7013 259.087 17.552 259.567 17.552C259.94 17.552 260.223 17.7387 260.415 18.112C260.618 18.4747 260.66 18.9867 260.543 19.648L260.367 19.744C260.442 19.1787 260.404 18.7253 260.255 18.384C260.106 18.032 259.86 17.856 259.519 17.856C259.242 17.856 258.948 17.9947 258.639 18.272C258.34 18.5387 258.047 18.9067 257.759 19.376C257.482 19.8347 257.226 20.352 256.991 20.928C256.767 21.504 256.586 22.1013 256.447 22.72C256.319 23.328 256.255 23.9147 256.255 24.48C256.255 24.9387 256.303 25.2587 256.399 25.44C256.506 25.6213 256.644 25.712 256.815 25.712ZM260.847 17.776C261.103 17.7653 261.359 17.744 261.615 17.712C261.871 17.68 262.106 17.6267 262.319 17.552L260.319 24.624C260.298 24.72 260.266 24.848 260.223 25.008C260.191 25.1573 260.191 25.296 260.223 25.424C260.266 25.552 260.378 25.616 260.559 25.616C260.772 25.616 260.98 25.4987 261.183 25.264C261.386 25.0293 261.588 24.6027 261.791 23.984L261.983 23.392H262.287L261.887 24.56C261.738 24.9867 261.556 25.3227 261.343 25.568C261.14 25.8027 260.927 25.968 260.703 26.064C260.479 26.1707 260.26 26.224 260.047 26.224C259.631 26.224 259.338 26.0853 259.167 25.808C259.028 25.5627 258.991 25.28 259.055 24.96C259.119 24.6293 259.194 24.2987 259.279 23.968L260.847 17.776ZM269.078 17.776L269.03 18.096H264.054L264.134 17.776H269.078ZM265.014 24.64C264.918 24.992 264.939 25.248 265.078 25.408C265.227 25.5573 265.419 25.632 265.654 25.632C265.889 25.632 266.123 25.5307 266.358 25.328C266.603 25.1253 266.843 24.6933 267.078 24.032L267.302 23.408H267.606L267.27 24.416C267.035 25.1093 266.731 25.584 266.358 25.84C265.995 26.096 265.569 26.224 265.078 26.224C264.641 26.224 264.305 26.1333 264.07 25.952C263.846 25.76 263.713 25.4933 263.67 25.152C263.627 24.8107 263.67 24.4213 263.798 23.984L266.278 15.344C266.534 15.3333 266.785 15.312 267.03 15.28C267.286 15.248 267.515 15.1947 267.718 15.12L265.014 24.64ZM273.621 17.872C273.216 17.872 272.81 18.0373 272.405 18.368C272.01 18.6987 271.648 19.152 271.317 19.728C270.986 20.304 270.72 20.96 270.517 21.696C270.325 22.432 270.229 23.2053 270.229 24.016C270.229 24.56 270.33 24.9547 270.533 25.2C270.746 25.4347 271.018 25.552 271.349 25.552C271.733 25.552 272.128 25.4347 272.533 25.2C272.938 24.9653 273.344 24.5493 273.749 23.952L274.069 24.08C273.866 24.432 273.6 24.7733 273.269 25.104C272.938 25.4347 272.565 25.7067 272.149 25.92C271.744 26.1227 271.312 26.224 270.853 26.224C270.213 26.224 269.701 26.0267 269.317 25.632C268.933 25.2373 268.741 24.6507 268.741 23.872C268.741 23.3813 268.81 22.8533 268.949 22.288C269.098 21.712 269.306 21.1467 269.573 20.592C269.85 20.0267 270.186 19.52 270.581 19.072C270.976 18.6133 271.424 18.2453 271.925 17.968C272.426 17.6907 272.976 17.552 273.573 17.552C274.042 17.552 274.448 17.6747 274.789 17.92C275.13 18.1547 275.301 18.4853 275.301 18.912C275.301 19.1147 275.253 19.3173 275.157 19.52C275.072 19.712 274.944 19.872 274.773 20C274.602 20.128 274.4 20.192 274.165 20.192C273.941 20.192 273.776 20.1333 273.669 20.016C273.562 19.888 273.509 19.7387 273.509 19.568C273.509 19.2587 273.632 18.9973 273.877 18.784C274.122 18.56 274.4 18.4213 274.709 18.368C274.602 18.2187 274.464 18.1013 274.293 18.016C274.122 17.92 273.898 17.872 273.621 17.872ZM276.607 26H275.215L278.383 15.328C278.49 14.9653 278.474 14.6987 278.335 14.528C278.207 14.3573 277.882 14.272 277.359 14.272L277.455 13.936C278.042 13.9253 278.57 13.8667 279.039 13.76C279.509 13.6427 279.941 13.4827 280.335 13.28L276.607 26ZM277.055 23.632C277.461 22.512 277.845 21.5627 278.207 20.784C278.581 20.0053 278.949 19.3813 279.311 18.912C279.674 18.432 280.047 18.0853 280.431 17.872C280.815 17.6587 281.215 17.552 281.631 17.552C282.133 17.552 282.474 17.6747 282.655 17.92C282.847 18.1547 282.933 18.4587 282.911 18.832C282.89 19.2053 282.815 19.584 282.687 19.968L281.135 24.64C281.05 24.9173 281.013 25.152 281.023 25.344C281.034 25.536 281.157 25.632 281.391 25.632C281.594 25.632 281.791 25.52 281.983 25.296C282.186 25.072 282.399 24.64 282.623 24L282.831 23.408H283.135L282.735 24.576C282.586 25.024 282.399 25.3653 282.175 25.6C281.962 25.8347 281.733 25.9947 281.487 26.08C281.253 26.176 281.023 26.224 280.799 26.224C280.373 26.224 280.074 26.128 279.903 25.936C279.733 25.744 279.658 25.4773 279.679 25.136C279.711 24.7947 279.797 24.4107 279.935 23.984L281.455 19.408C281.509 19.248 281.557 19.0613 281.599 18.848C281.642 18.6347 281.631 18.4533 281.567 18.304C281.514 18.144 281.359 18.064 281.103 18.064C280.837 18.064 280.549 18.1867 280.239 18.432C279.941 18.6667 279.631 19.008 279.311 19.456C278.991 19.904 278.677 20.4427 278.367 21.072C278.058 21.7013 277.759 22.4053 277.471 23.184C277.194 23.952 276.933 24.784 276.687 25.68L277.055 23.632ZM286.049 25.712C286.306 25.712 286.599 25.552 286.93 25.232C287.26 24.9013 287.596 24.4587 287.938 23.904C288.279 23.3493 288.594 22.72 288.882 22.016C289.17 21.312 289.399 20.5813 289.57 19.824L289.298 21.552C288.892 22.6827 288.487 23.5947 288.082 24.288C287.676 24.9707 287.266 25.4667 286.85 25.776C286.434 26.0747 286.012 26.224 285.586 26.224C285.084 26.224 284.706 26.0427 284.45 25.68C284.204 25.3173 284.082 24.8533 284.082 24.288C284.082 23.776 284.167 23.2213 284.338 22.624C284.508 22.016 284.743 21.4133 285.042 20.816C285.351 20.2187 285.703 19.6747 286.098 19.184C286.492 18.6933 286.919 18.2987 287.378 18C287.847 17.7013 288.322 17.552 288.802 17.552C289.175 17.552 289.458 17.7387 289.65 18.112C289.852 18.4747 289.895 18.9867 289.778 19.648L289.602 19.744C289.676 19.1787 289.639 18.7253 289.49 18.384C289.34 18.032 289.095 17.856 288.754 17.856C288.476 17.856 288.183 17.9947 287.874 18.272C287.575 18.5387 287.282 18.9067 286.994 19.376C286.716 19.8347 286.46 20.352 286.226 20.928C286.002 21.504 285.82 22.1013 285.682 22.72C285.554 23.328 285.49 23.9147 285.49 24.48C285.49 24.9387 285.538 25.2587 285.634 25.44C285.74 25.6213 285.879 25.712 286.049 25.712ZM290.082 17.776C290.338 17.7653 290.594 17.744 290.85 17.712C291.106 17.68 291.34 17.6267 291.554 17.552L289.554 24.624C289.532 24.72 289.5 24.848 289.458 25.008C289.426 25.1573 289.426 25.296 289.458 25.424C289.5 25.552 289.612 25.616 289.794 25.616C290.007 25.616 290.215 25.4987 290.418 25.264C290.62 25.0293 290.823 24.6027 291.026 23.984L291.218 23.392H291.522L291.122 24.56C290.972 24.9867 290.791 25.3227 290.578 25.568C290.375 25.8027 290.162 25.968 289.938 26.064C289.714 26.1707 289.495 26.224 289.282 26.224C288.866 26.224 288.572 26.0853 288.402 25.808C288.263 25.5627 288.226 25.28 288.29 24.96C288.354 24.6293 288.428 24.2987 288.514 23.968L290.082 17.776Z" fill="#8DC8E4"/>
</svg>
