<svg width="1384" height="735" viewBox="0 0 1384 735" fill="none" xmlns="http://www.w3.org/2000/svg">
<g filter="url(#filter0_n_34_395)">
<path d="M391.764 266.446C406.868 264.912 424.397 268.812 438.309 275.169C473.662 291.322 476.856 332.59 469.826 366.23C465.666 386.137 455.794 402.015 458.097 423.563C460.34 444.541 472.878 450.636 479.993 468.165C482.166 474.424 481.862 482.1 478.846 487.913C467.878 509.055 436.686 508.024 418.069 498.682C406.307 492.912 397.897 482.002 395.313 469.162C393.005 457.682 394.015 447.646 381.975 441.87C365.572 437.403 351.009 454.603 338.518 462.674C301.319 487.071 250.598 472.918 246.049 424.479C241.335 374.277 280.421 327.813 317.324 298.697C339.043 281.56 364.102 269.112 391.764 266.446ZM335.447 411.875C355.134 405.944 387.809 381.767 398.1 363.329C408.66 344.409 397.046 329.99 375.223 331.235C353.083 334.003 335.001 347.923 321.041 365.151C312.82 375.296 301.855 397.456 314.869 408.564C319.462 412.485 328.026 413.082 333.96 412.149C334.458 412.074 334.954 411.983 335.447 411.875Z" fill="#2E2F31" fill-opacity="0.04"/>
<path d="M933.795 266.44C947.689 265.275 961.927 269.097 974.943 274.004C1004.78 285.255 1024.44 319.825 1010.79 350.509C994.682 386.714 943.958 399.796 910.034 413.032C900.735 415.812 880.901 428.757 887.058 440.325C900.377 465.343 940.877 451.328 958.251 439.942C973.902 429.684 992.547 414.636 1010.46 421.983C1016.53 424.461 1021.35 429.264 1023.84 435.32C1027.4 443.918 1025.92 451.008 1022.64 459.131C1008.27 485.203 965.381 501.236 937.336 504.553C906.919 507.897 871.393 502.352 847.092 482.378C772.04 420.69 834.036 300.029 910.075 271.524C917.643 268.685 925.766 267.285 933.795 266.44ZM904.743 378.787C919.184 373.719 961.137 351.219 953.554 331.294C952.054 327.406 949.047 324.287 945.215 322.646C941.478 320.998 936.288 320.599 932.254 321.043C915.082 323.695 900.147 334.913 889.585 348.481C884.706 354.757 877.826 370.187 886.909 376.494C892.058 380.07 898.715 379.856 904.743 378.787Z" fill="#2E2F31" fill-opacity="0.04"/>
<path d="M642.26 252.927C667.784 248.637 706.489 263.637 724.519 281.805C756.389 313.921 761.822 371.395 763.322 414.803C764.241 441.487 762.538 472.303 743.258 492.362C730.587 505.539 712.504 509.705 698.907 495.537C680.728 476.59 691.061 449.908 695.129 427.76C701.029 395.626 703.549 363.463 678.721 338.915L678.275 338.556C668.252 330.642 654.047 325.327 641.202 327.323C595.846 334.367 594.114 391.163 594.334 426.831C594.411 439.479 593.386 452.798 585.205 463.137C580.49 469.178 573.539 473.065 565.922 473.921C542.54 476.384 531.31 447.971 529.533 429.079C522.387 353.087 556.838 262.573 642.26 252.927Z" fill="#2E2F31" fill-opacity="0.04"/>
<path d="M166.26 176.615C206.369 180.228 197.966 234.608 187.611 260.007C182.633 272.218 177.657 285.9 173.519 298.406C167.766 316.013 163.389 334.039 160.428 352.322C155.262 385.729 155.366 431.316 174.449 460.933C183.842 475.504 200.905 484.459 202.164 503.519C203.656 526.098 189.485 538.739 168.081 540.219C115.136 537.427 96.3281 462.064 92.9005 419.669C91.6807 405.086 91.4719 390.435 92.2748 375.824C95.0644 330.704 112.05 223.167 140.99 189.365C147.817 181.392 155.893 177.429 166.26 176.615Z" fill="#2E2F31" fill-opacity="0.04"/>
<path d="M1246.72 357.551C1253.89 356.431 1261.03 358.192 1267.21 361.894C1274.34 365.919 1278.71 372.661 1280.48 380.655C1286.44 407.62 1264.59 429.442 1246.74 446.13C1227.57 464.064 1206.89 479.837 1186.14 495.814C1171.55 507.043 1156.87 518.004 1143.89 531.091C1126.79 547.873 1119.38 569.939 1107.86 590.21C1106.54 592.509 1104.51 595.175 1102.84 597.272C1096.25 605.551 1088.91 610.901 1078.51 613.255C1035.54 616.206 1038.58 564.223 1057.57 539.968C1071.01 522.807 1085.4 510.248 1101.19 495.43C1119.75 478.268 1137.86 460.628 1155.5 442.527C1168.68 428.936 1181.45 414.975 1193.82 400.658C1208.47 383.884 1223.61 361.45 1246.72 357.551Z" fill="#2E2F31" fill-opacity="0.04"/>
<path d="M1124.68 277.937C1132.79 277.586 1141.91 282.365 1146.21 289.24C1159.57 310.538 1145.85 331.467 1136.87 350.867C1131.01 364.929 1125.57 380.511 1129.51 395.834C1131.75 404.558 1136.58 416.926 1127.24 423.345C1121.91 427.014 1114.88 426.377 1108.83 425.144C1054.87 405.701 1066.73 283.591 1124.68 277.937Z" fill="#2E2F31" fill-opacity="0.04"/>
<path d="M1269.65 236.029C1280.34 234.857 1293.57 242.004 1297.07 252.37C1306.82 281.216 1293.66 317.888 1261.37 323.672C1210.58 324.642 1226.33 241.24 1269.65 236.029Z" fill="#2E2F31" fill-opacity="0.04"/>
</g>
<defs>
<filter id="filter0_n_34_395" x="0" y="0" width="1384" height="735" filterUnits="userSpaceOnUse" color-interpolation-filters="sRGB">
<feFlood flood-opacity="0" result="BackgroundImageFix"/>
<feBlend mode="normal" in="SourceGraphic" in2="BackgroundImageFix" result="shape"/>
<feTurbulence type="fractalNoise" baseFrequency="0.5 0.5" stitchTiles="stitch" numOctaves="3" result="noise" seed="3951" />
<feColorMatrix in="noise" type="luminanceToAlpha" result="alphaNoise" />
<feComponentTransfer in="alphaNoise" result="coloredNoise1">
<feFuncA type="discrete" tableValues="1 1 1 1 1 1 1 1 1 1 1 1 1 1 1 1 1 1 1 1 1 1 1 1 1 1 1 1 1 1 1 1 1 1 1 1 1 1 1 1 1 1 1 1 1 1 1 1 1 1 1 0 0 0 0 0 0 0 0 0 0 0 0 0 0 0 0 0 0 0 0 0 0 0 0 0 0 0 0 0 0 0 0 0 0 0 0 0 0 0 0 0 0 0 0 0 0 0 0 0 "/>
</feComponentTransfer>
<feComposite operator="in" in2="shape" in="coloredNoise1" result="noise1Clipped" />
<feComponentTransfer in="alphaNoise" result="coloredNoise2">
<feFuncA type="discrete" tableValues="0 0 0 0 0 0 0 0 0 0 0 0 0 0 0 0 0 0 0 0 0 0 0 0 0 0 0 0 0 0 0 0 0 0 0 0 0 0 0 0 0 0 0 0 0 0 0 0 0 1 1 1 1 1 1 1 1 1 1 1 1 1 1 1 1 1 1 1 1 1 1 1 1 1 1 1 1 1 1 1 1 1 1 1 1 1 1 1 1 1 1 1 1 1 1 1 1 1 1 1 "/>
</feComponentTransfer>
<feComposite operator="in" in2="shape" in="coloredNoise2" result="noise2Clipped" />
<feFlood flood-color="rgba(0, 0, 0, 0.4)" result="color1Flood" />
<feComposite operator="in" in2="noise1Clipped" in="color1Flood" result="color1" />
<feFlood flood-color="rgba(255, 255, 255, 0.25)" result="color2Flood" />
<feComposite operator="in" in2="noise2Clipped" in="color2Flood" result="color2" />
<feMerge result="effect1_noise_34_395">
<feMergeNode in="shape" />
<feMergeNode in="color1" />
<feMergeNode in="color2" />
</feMerge>
</filter>
</defs>
</svg>
